<svg xmlns="http://www.w3.org/2000/svg" xmlns:xlink="http://www.w3.org/1999/xlink" viewBox="0 0 750 500"><defs><linearGradient id="d" x1="784.7" y1="24.6" x2="-122.5" y2="523.6" gradientUnits="userSpaceOnUse"><stop offset=".3" stop-color="#a3ff6e"/><stop offset=".3" stop-color="#95f36d"/><stop offset=".8" stop-color="#41ac68"/><stop offset="1" stop-color="#219166"/></linearGradient><linearGradient id="e" x1="210.2" y1="277.6" x2="1331.8" y2="282.4" gradientUnits="userSpaceOnUse"><stop offset="0" stop-color="#219166"/><stop offset="0" stop-color="#3ba767"/><stop offset=".2" stop-color="#68cd6a"/><stop offset=".4" stop-color="#88e86c"/><stop offset=".5" stop-color="#9bf96d"/><stop offset=".5" stop-color="#a3ff6e"/></linearGradient><linearGradient id="a" x1="6.9" y1="366.7" x2="162.1" y2="507.2" gradientUnits="userSpaceOnUse"><stop offset=".2" stop-color="#219166"/><stop offset=".3" stop-color="#48b268"/><stop offset=".3" stop-color="#6fd36a"/><stop offset=".4" stop-color="#8beb6c"/><stop offset=".4" stop-color="#9cf96d"/><stop offset=".4" stop-color="#a3ff6e"/></linearGradient><linearGradient id="b" x1="329.7" y1="396.7" x2="1202.4" y2="400.5" gradientUnits="userSpaceOnUse"><stop offset="0" stop-color="#219166"/><stop offset=".2" stop-color="#3ba767"/><stop offset=".3" stop-color="#68cd6a"/><stop offset=".4" stop-color="#88e86c"/><stop offset=".5" stop-color="#9bf96d"/><stop offset=".6" stop-color="#a3ff6e"/></linearGradient><linearGradient id="f" x1="229.9" y1="-35.5" x2="754.7" y2="439.7" xlink:href="#a"/><linearGradient id="g" x1="301.6" y1="-30.6" x2="754.4" y2="379.4" gradientUnits="userSpaceOnUse"><stop offset=".2" stop-color="#219166"/><stop offset=".2" stop-color="#35a167"/><stop offset=".2" stop-color="#5cc369"/><stop offset=".3" stop-color="#7bdd6b"/><stop offset=".3" stop-color="#91ef6c"/><stop offset=".4" stop-color="#9efb6d"/><stop offset=".4" stop-color="#a3ff6e"/></linearGradient><linearGradient id="h" x1="200.4" y1="-131.7" x2="607.2" y2="-130" gradientTransform="translate(218 292.1)" gradientUnits="userSpaceOnUse"><stop offset="0" stop-color="#219166"/><stop offset=".1" stop-color="#3ba767"/><stop offset=".3" stop-color="#68cd6a"/><stop offset=".4" stop-color="#88e86c"/><stop offset=".5" stop-color="#9bf96d"/><stop offset=".5" stop-color="#a3ff6e"/></linearGradient><linearGradient id="k" x1="298.4" y1="-250.7" x2="501.2" y2="-249.8" gradientTransform="translate(290.6 355.2)" gradientUnits="userSpaceOnUse"><stop offset="0" stop-color="#219166"/><stop offset=".1" stop-color="#3ba767"/><stop offset=".3" stop-color="#68cd6a"/><stop offset=".4" stop-color="#88e86c"/><stop offset=".5" stop-color="#9bf96d"/><stop offset=".5" stop-color="#a3ff6e"/></linearGradient><linearGradient id="l" x1="378" y1="-171.1" x2="580.8" y2="-170.2" gradientTransform="translate(211 388.2)" gradientUnits="userSpaceOnUse"><stop offset="0" stop-color="#219166"/><stop offset=".2" stop-color="#3ba767"/><stop offset=".4" stop-color="#73d66b"/><stop offset=".5" stop-color="#95f36d"/><stop offset=".6" stop-color="#a3ff6e"/></linearGradient><linearGradient id="m" x1="77.6" y1="160.5" x2="227.4" y2="161.1" gradientTransform="translate(70 65.7)" gradientUnits="userSpaceOnUse"><stop offset="0" stop-color="#219166"/><stop offset=".4" stop-color="#51b968"/><stop offset=".9" stop-color="#a3ff6e"/></linearGradient><linearGradient id="n" x1="347.9" y1="-220.5" x2="550.7" y2="-219.7" gradientTransform="translate(254.8 381.4)" gradientUnits="userSpaceOnUse"><stop offset="0" stop-color="#219166"/><stop offset=".2" stop-color="#3ba767"/><stop offset=".3" stop-color="#68cd6a"/><stop offset=".5" stop-color="#88e86c"/><stop offset=".6" stop-color="#9bf96d"/><stop offset=".7" stop-color="#a3ff6e"/></linearGradient><linearGradient id="o" x1="386.9" y1="-230.7" x2="488.9" y2="-230.3" gradientTransform="translate(259.1 391.7)" gradientUnits="userSpaceOnUse"><stop offset=".1" stop-color="#219166"/><stop offset=".2" stop-color="#3ba767"/><stop offset=".3" stop-color="#68cd6a"/><stop offset=".4" stop-color="#88e86c"/><stop offset=".5" stop-color="#9bf96d"/><stop offset=".5" stop-color="#a3ff6e"/></linearGradient><linearGradient id="p" x1="675.1" y1="120.1" x2="715.1" y2="155.8" gradientTransform="rotate(-45 689.3 132.782)" gradientUnits="userSpaceOnUse"><stop offset="0" stop-color="#9f6"/><stop offset=".4" stop-color="#ceffb6"/><stop offset=".7" stop-color="#f1ffea"/><stop offset=".9" stop-color="#fff"/></linearGradient><linearGradient id="q" x1="678.4" y1="177.7" x2="706.8" y2="208.8" gradientTransform="rotate(-45 689.238 189.608)" gradientUnits="userSpaceOnUse"><stop offset="0" stop-color="#9f6"/><stop offset=".6" stop-color="#e5ffd8"/><stop offset=".7" stop-color="#fff"/></linearGradient><linearGradient id="c" x1="410.2" y1="228.2" x2="207.4" y2="230.9" gradientTransform="translate(-28.7 165.6)" gradientUnits="userSpaceOnUse"><stop offset="0" stop-color="#a3ff6e"/><stop offset=".1" stop-color="#8beb6c"/><stop offset=".5" stop-color="#52ba69"/><stop offset=".7" stop-color="#2e9c66"/><stop offset=".9" stop-color="#219166"/></linearGradient><linearGradient id="r" x1="51.4" y1="269.3" x2="458.2" y2="271.1" gradientTransform="translate(-21.9 69.3)" gradientUnits="userSpaceOnUse"><stop offset=".1" stop-color="#219166"/><stop offset=".2" stop-color="#289766"/><stop offset=".4" stop-color="#3ea967"/><stop offset=".7" stop-color="#61c769"/><stop offset=".9" stop-color="#91ef6c"/><stop offset="1" stop-color="#a3ff6e"/></linearGradient><linearGradient id="t" x1="230" y1="169.8" x2="331.9" y2="170.3" gradientTransform="translate(19.4 169.2)" gradientUnits="userSpaceOnUse"><stop offset="0" stop-color="#219166"/><stop offset=".2" stop-color="#36a367"/><stop offset=".4" stop-color="#65ca6a"/><stop offset=".7" stop-color="#86e76c"/><stop offset=".9" stop-color="#9bf86d"/><stop offset="1" stop-color="#a3ff6e"/></linearGradient><linearGradient id="u" x1="291.7" y1="303.2" x2="313.4" y2="321.3" gradientTransform="rotate(-45 300.748 310.826)" gradientUnits="userSpaceOnUse"><stop offset="0" stop-color="#9f6"/><stop offset=".9" stop-color="#fff"/></linearGradient><linearGradient id="v" x1="294" y1="360.2" x2="327.6" y2="396.3" gradientTransform="rotate(-45 300.786 367.41)" gradientUnits="userSpaceOnUse"><stop offset="0" stop-color="#219166"/><stop offset=".1" stop-color="#3ba767"/><stop offset=".4" stop-color="#68cd6a"/><stop offset=".7" stop-color="#88e86c"/><stop offset=".9" stop-color="#9bf96d"/><stop offset="1" stop-color="#a3ff6e"/></linearGradient><linearGradient id="w" x1="144.5" y1="229.5" x2="347.3" y2="230.4" gradientTransform="translate(-5.4 109.3)" gradientUnits="userSpaceOnUse"><stop offset="0" stop-color="#9f6"/><stop offset=".2" stop-color="#a7ff7b"/><stop offset=".4" stop-color="#cdffb4"/><stop offset=".7" stop-color="#fff"/></linearGradient><linearGradient id="x" x1="-101.2" y1="223.3" x2="1038.8" y2="228.2" gradientUnits="userSpaceOnUse"><stop offset="0" stop-color="#219166"/><stop offset=".1" stop-color="#31a066"/><stop offset=".3" stop-color="#5ec966"/><stop offset=".4" stop-color="#7ee666"/><stop offset=".5" stop-color="#91f866"/><stop offset=".6" stop-color="#9f6"/></linearGradient><linearGradient id="y" x1="-34.6" y1="150" x2="351.8" y2="151.7" xlink:href="#b"/><linearGradient id="z" x1="689.1" y1="226.9" x2="830.6" y2="368.4" xlink:href="#b"/><linearGradient id="A" x1="4.4" y1="160.1" x2="155.4" y2="160.8" gradientTransform="translate(84.9 30.2)" gradientUnits="userSpaceOnUse"><stop offset="0" stop-color="#9f6"/><stop offset=".3" stop-color="#b1ff8a"/><stop offset=".7" stop-color="#efffe7"/><stop offset=".9" stop-color="#fff"/></linearGradient><linearGradient id="B" x1="224.2" y1="227.9" x2="21.4" y2="230.5" gradientTransform="translate(32.9 17.1)" xlink:href="#c"/><linearGradient id="C" x1="422.4" y1="36.6" x2="10.1" y2="41.9" xlink:href="#c"/><linearGradient id="D" x1="179.9" y1="70.1" x2="20.2" y2="-89.6" gradientUnits="userSpaceOnUse"><stop offset="0" stop-color="#a3ff6e"/><stop offset="0" stop-color="#8beb6c"/><stop offset=".3" stop-color="#52ba69"/><stop offset=".5" stop-color="#2e9c66"/><stop offset=".6" stop-color="#219166"/></linearGradient></defs><path fill="url(#d)" data-name="BACKGROUND" d="M0 0h750v500H0z"/><g data-name="OBJECTS" stroke-width="0"><path fill="url(#e)" d="M750 500V57.9L307.9 500z"/><path fill="url(#a)" d="M0 355.7v101.7l101.7-101.7z"/><path fill="url(#b)" d="M750 434.1 611 295 406 500h344z"/><path fill="url(#f)" d="m140.8 65.9 139 139.1 205-205h-344z"/><path fill="url(#g)" d="m224.7 56.9 119.9 120L521.5 0H224.7z"/><path transform="rotate(45 534.34 160.931)" fill="url(#h)" d="M454.5 81.1h159.7v159.7H454.5z"/><path transform="rotate(45 646.822 104.723)" fill="url(#k)" d="M607 65h79.6v79.6H607z"/><path transform="rotate(45 646.838 217.429)" fill="url(#l)" d="M607 177.6h79.6v79.6H607z"/><path transform="rotate(45 187.119 226.407)" fill="url(#m)" d="M157.7 197h58.8v58.8h-58.8z"/><path transform="rotate(45 660.564 161.115)" fill="url(#n)" d="M620.7 121.3h79.6v79.6h-79.6z"/><path transform="rotate(45 675.097 161.034)" fill="url(#o)" d="M655.1 141.1h40v40h-40z"/><path transform="rotate(45 689.287 132.812)" fill="url(#p)" d="M679.3 122.8h20v20h-20z"/><path transform="rotate(45 689.35 189.638)" fill="url(#q)" d="M679.3 179.6h20v20h-20z"/><path transform="rotate(45 258.285 395.485)" fill="url(#c)" d="M218.5 355.7h79.6v79.6h-79.6z"/><path transform="rotate(45 145.425 339.137)" fill="url(#r)" d="M65.6 259.3h159.7V419H65.6z"/><path transform="rotate(45 286.594 339.211)" fill="url(#t)" d="M266.6 319.2h40v40h-40z"/><path transform="rotate(45 300.855 310.818)" fill="url(#u)" d="M290.8 300.8h20v20h-20z"/><path transform="rotate(45 300.817 367.402)" fill="url(#v)" d="M290.8 357.4h20v20h-20z"/><path transform="rotate(45 202.01 339.175)" fill="url(#w)" d="M162.2 299.3h79.6v79.6h-79.6z"/><path fill="url(#x)" d="M0 0v449.4L449.4 0z"/><path fill="url(#y)" d="M0 0v300.4l151.7-151.7L3 0z"/><path fill="url(#z)" d="M750 331.7V243l-44.8 44.8 43.9 43.9z"/><path transform="rotate(45 151.645 190.614)" fill="url(#A)" d="M122 161h59.3v59.3H122z"/><path transform="rotate(45 109.748 246.859)" fill="url(#B)" d="M70 207.1h79.6v79.6H70z"/><path fill="url(#C)" d="m122.5 82 81.9-82H40.5z"/><path fill="url(#D)" d="M109.8 56.3 166.1 0H53.5z"/></g></svg>